# xmcd
#
# Track frame offsets:
# 150
# 14403
# 41921
# 67101
# 80969
# 106490
# 126093
# 144407
# 163282
# 183354
# 202267
# 232430
# 249639
#
# Disc length: 3718 seconds
#
#
# Revision: 0
# Processed by: cddbd v1.4PL0 Copyright (c) Steve Scherf et al.
# Submitted via: FreeRIP 2.00 
#
DISCID=d10e840d
DTITLE=Sanders and Macleod - Live at the Frog
DYEAR=1998
DGENRE=Blues
TTITLE0=Cocaine Habit Blues
TTITLE1=Diving Duck Blues
TTITLE2=Special Rider
TTITLE3=I'm going to Getma
TTITLE4=No Damn Good
TTITLE5=Make me a pallet on your floor
TTITLE6=Sitting on top of the world
TTITLE7=Come on mama
TTITLE8=Why don't you do right
TTITLE9=K.C.  Moan
TTITLE10=Pilgrim
TTITLE11=Move that thing
TTITLE12=St James infirmary
EXTD=Martin Sanders:-  Vocals, Banjo, Guitar and Kazoo.\nKaren Macleod:- Vocals and Guitar
EXTT0=
EXTT1=
EXTT2=
EXTT3=
EXTT4=
EXTT5=
EXTT6=
EXTT7=
EXTT8=
EXTT9=
EXTT10=
EXTT11=
EXTT12=
PLAYORDER=
